<?xml version="1.0" encoding="UTF-8" standalone="no"?><!DOCTYPE svg PUBLIC "-//W3C//DTD SVG 1.1//EN" "http://www.w3.org/Graphics/SVG/1.1/DTD/svg11.dtd"><svg width="100%" height="100%" viewBox="0 0 3840 2160" version="1.1" xmlns="http://www.w3.org/2000/svg" xmlns:xlink="http://www.w3.org/1999/xlink" xml:space="preserve" xmlns:serif="http://www.serif.com/" style="fill-rule:evenodd;clip-rule:evenodd;stroke-linecap:round;stroke-linejoin:round;stroke-miterlimit:1.5;"><rect id="Mesa-de-trabajo1" serif:id="Mesa de trabajo1" x="0" y="0" width="3840" height="2160" style="fill:none;"/><g id="Mesa-de-trabajo11" serif:id="Mesa de trabajo1"><g><path d="M3738,732.25l0,672.5c0,185.581 -150.669,336.25 -336.25,336.25l-2778.5,0c-185.581,0 -336.25,-150.669 -336.25,-336.25l0,-672.5c0,-185.581 150.669,-336.25 336.25,-336.25l2778.5,0c185.581,0 336.25,150.669 336.25,336.25Z" style="fill:#315fa6;stroke:#3c6a95;stroke-width:6.25px;"/><path d="M1907.912,1618.661l-71.903,0l0,-748.64l71.903,0l0,85.65l3.172,0c20.443,-32.427 47.759,-56.923 81.949,-73.489c34.189,-16.566 68.907,-24.849 104.154,-24.849c38.771,0 73.842,6.697 105.211,20.091c31.37,13.394 58.157,31.722 80.363,54.985c22.205,23.263 39.476,50.755 51.813,82.477c12.336,31.722 18.505,65.911 18.505,102.568c0,36.657 -6.168,70.846 -18.505,102.568c-12.336,31.722 -29.607,59.215 -51.813,82.477c-22.205,23.263 -48.993,41.591 -80.363,54.985c-31.37,13.394 -66.44,20.091 -105.211,20.091c-35.247,0 -69.965,-8.283 -104.154,-24.849c-34.189,-16.566 -61.506,-40.358 -81.949,-71.375l-3.172,0l0,337.311Zm369.033,-501.208c0,-27.492 -4.23,-53.399 -12.689,-77.719c-8.459,-24.32 -20.619,-45.468 -36.48,-63.444c-15.861,-17.976 -35.423,-32.251 -58.686,-42.825c-23.263,-10.574 -49.698,-15.861 -79.305,-15.861c-27.492,0 -52.87,5.111 -76.133,15.332c-23.263,10.222 -43.353,24.32 -60.272,42.296c-16.918,17.976 -30.136,39.124 -39.653,63.444c-9.517,24.32 -14.275,50.579 -14.275,78.776c0,28.197 4.758,54.456 14.275,78.776c9.517,24.32 22.734,45.292 39.653,62.915c16.918,17.623 37.009,31.546 60.272,41.767c23.263,10.222 48.64,15.332 76.133,15.332c29.607,0 56.042,-5.111 79.305,-15.332c23.263,-10.222 42.825,-24.32 58.686,-42.296c15.861,-17.976 28.021,-39.124 36.48,-63.444c8.459,-24.32 12.689,-50.227 12.689,-77.719Z" style="fill:#b0c6e7;fill-rule:nonzero;"/><path d="M2713.653,1045.549c0,-43.001 -11.279,-75.076 -33.837,-96.224c-22.558,-21.148 -55.337,-31.722 -98.338,-31.722c-29.607,0 -57.1,5.287 -82.477,15.861c-25.378,10.574 -46.878,24.673 -64.502,42.296l-40.181,-47.583c20.443,-20.443 47.407,-37.362 80.891,-50.755c33.484,-13.394 71.375,-20.091 113.671,-20.091c26.788,0 51.813,3.701 75.076,11.103c23.263,7.402 43.706,18.505 61.329,33.308c17.623,14.804 31.37,33.484 41.239,56.042c9.869,22.558 14.804,48.993 14.804,79.305l0,216.767c0,19.033 0.705,38.771 2.115,59.215c1.41,20.443 3.525,37.714 6.344,51.813l-64.502,0c-2.115,-11.984 -3.877,-25.025 -5.287,-39.124c-1.41,-14.099 -2.115,-27.845 -2.115,-41.239l-2.115,0c-22.558,33.132 -48.112,56.923 -76.662,71.375c-28.55,14.451 -62.915,21.677 -103.097,21.677c-19.033,0 -38.595,-2.644 -58.686,-7.931c-20.091,-5.287 -38.419,-13.922 -54.985,-25.906c-16.566,-11.984 -30.312,-27.492 -41.239,-46.526c-10.926,-19.033 -16.39,-42.296 -16.39,-69.789c0,-38.066 9.693,-68.202 29.079,-90.408c19.386,-22.205 45.292,-38.771 77.719,-49.698c32.427,-10.926 69.612,-17.976 111.556,-21.148c41.944,-3.172 85.473,-4.758 130.589,-4.758l0,-15.861Zm-21.148,71.903c-29.607,0 -59.391,1.234 -89.35,3.701c-29.96,2.467 -57.1,7.402 -81.42,14.804c-24.32,7.402 -44.235,18.152 -59.743,32.251c-15.509,14.099 -23.263,32.779 -23.263,56.042c0,17.623 3.348,32.427 10.045,44.411c6.697,11.984 15.685,21.677 26.964,29.079c11.279,7.402 23.792,12.689 37.538,15.861c13.746,3.172 27.669,4.758 41.767,4.758c25.378,0 47.936,-4.406 67.674,-13.218c19.738,-8.812 36.304,-20.796 49.698,-35.952c13.394,-15.156 23.615,-32.603 30.665,-52.341c7.049,-19.738 10.574,-40.534 10.574,-62.387l0,-37.009l-21.148,0Z" style="fill:#b0c6e7;fill-rule:nonzero;"/><path d="M3123.924,987.392c-10.574,-20.443 -26.611,-37.185 -48.112,-50.227c-21.501,-13.041 -45.997,-19.562 -73.489,-19.562c-12.689,0 -25.378,1.41 -38.066,4.23c-12.689,2.82 -23.968,7.402 -33.837,13.746c-9.869,6.344 -17.8,14.451 -23.792,24.32c-5.992,9.869 -8.988,21.501 -8.988,34.894c0,23.263 9.517,41.062 28.55,53.399c19.033,12.336 48.993,22.734 89.879,31.193c58.51,11.984 101.687,29.431 129.532,52.341c27.845,22.91 41.767,53.751 41.767,92.523c0,28.197 -5.463,51.989 -16.39,71.375c-10.926,19.386 -25.201,35.247 -42.825,47.583c-17.623,12.336 -37.538,21.148 -59.743,26.435c-22.205,5.287 -44.587,7.931 -67.145,7.931c-37.362,0 -73.666,-7.754 -108.912,-23.263c-35.247,-15.509 -64.149,-39.829 -86.707,-72.961l57.1,-42.296c12.689,21.853 31.37,40.181 56.042,54.985c24.673,14.804 51.813,22.205 81.42,22.205c15.509,0 30.312,-1.41 44.411,-4.23c14.099,-2.82 26.435,-7.754 37.009,-14.804c10.574,-7.049 19.033,-16.037 25.378,-26.964c6.344,-10.926 9.517,-24.496 9.517,-40.71c0,-26.083 -12.513,-45.645 -37.538,-58.686c-25.025,-13.041 -61.153,-25.201 -108.384,-36.48c-14.804,-3.525 -30.488,-7.931 -47.054,-13.218c-16.566,-5.287 -31.898,-13.041 -45.997,-23.263c-14.099,-10.222 -25.73,-23.087 -34.894,-38.595c-9.164,-15.509 -13.746,-34.894 -13.746,-58.157c0,-25.378 4.935,-47.054 14.804,-65.03c9.869,-17.976 23.087,-32.779 39.653,-44.411c16.566,-11.631 35.423,-20.267 56.571,-25.906c21.148,-5.639 43.001,-8.459 65.559,-8.459c34.542,0 68.026,7.754 100.453,23.263c32.427,15.509 56.747,37.362 72.961,65.559l-54.985,41.239Z" style="fill:#b0c6e7;fill-rule:nonzero;"/><path d="M3521.155,987.392c-10.574,-20.443 -26.611,-37.185 -48.112,-50.227c-21.501,-13.041 -45.997,-19.562 -73.489,-19.562c-12.689,0 -25.378,1.41 -38.066,4.23c-12.689,2.82 -23.968,7.402 -33.837,13.746c-9.869,6.344 -17.8,14.451 -23.792,24.32c-5.992,9.869 -8.988,21.501 -8.988,34.894c0,23.263 9.517,41.062 28.55,53.399c19.033,12.336 48.993,22.734 89.879,31.193c58.51,11.984 101.687,29.431 129.532,52.341c27.845,22.91 41.767,53.751 41.767,92.523c0,28.197 -5.463,51.989 -16.39,71.375c-10.926,19.386 -25.201,35.247 -42.825,47.583c-17.623,12.336 -37.538,21.148 -59.743,26.435c-22.205,5.287 -44.587,7.931 -67.145,7.931c-37.362,0 -73.666,-7.754 -108.912,-23.263c-35.247,-15.509 -64.149,-39.829 -86.707,-72.961l57.1,-42.296c12.689,21.853 31.37,40.181 56.042,54.985c24.673,14.804 51.813,22.205 81.42,22.205c15.509,0 30.312,-1.41 44.411,-4.23c14.099,-2.82 26.435,-7.754 37.009,-14.804c10.574,-7.049 19.033,-16.037 25.378,-26.964c6.344,-10.926 9.517,-24.496 9.517,-40.71c0,-26.083 -12.513,-45.645 -37.538,-58.686c-25.025,-13.041 -61.153,-25.201 -108.384,-36.48c-14.804,-3.525 -30.488,-7.931 -47.054,-13.218c-16.566,-5.287 -31.898,-13.041 -45.997,-23.263c-14.099,-10.222 -25.73,-23.087 -34.894,-38.595c-9.164,-15.509 -13.746,-34.894 -13.746,-58.157c0,-25.378 4.935,-47.054 14.804,-65.03c9.869,-17.976 23.087,-32.779 39.653,-44.411c16.566,-11.631 35.423,-20.267 56.571,-25.906c21.148,-5.639 43.001,-8.459 65.559,-8.459c34.542,0 68.026,7.754 100.453,23.263c32.427,15.509 56.747,37.362 72.961,65.559l-54.985,41.239Z" style="fill:#b0c6e7;fill-rule:nonzero;"/><path d="M495.224,958.842l-96.224,0l0,-101.511l96.224,0l0,-75.076c0,-30.312 3.348,-59.391 10.045,-87.236c6.697,-27.845 17.976,-52.341 33.837,-73.489c15.861,-21.148 36.833,-37.89 62.915,-50.227c26.083,-12.336 58.862,-18.505 98.338,-18.505c14.099,-0 25.906,0.529 35.423,1.586c9.517,1.057 19.209,2.996 29.079,5.816l-8.459,107.855c-7.049,-2.115 -14.627,-3.877 -22.734,-5.287c-8.107,-1.41 -16.742,-2.115 -25.906,-2.115c-18.328,0 -33.132,3.525 -44.411,10.574c-11.279,7.049 -19.914,16.213 -25.906,27.492c-5.992,11.279 -10.045,23.615 -12.16,37.009c-2.115,13.394 -3.172,26.435 -3.172,39.124l0,82.477l117.372,0l0,101.511l-117.372,0l0,406.042l-126.888,0l0,-406.042Z" style="fill:#fff;fill-rule:nonzero;"/><path d="M1090.541,1300.383l-3.172,0c-12.689,22.558 -33.132,41.062 -61.329,55.514c-28.197,14.451 -60.272,21.677 -96.224,21.677c-20.443,0 -41.767,-2.644 -63.973,-7.931c-22.205,-5.287 -42.649,-14.099 -61.329,-26.435c-18.681,-12.336 -34.189,-28.55 -46.526,-48.64c-12.336,-20.091 -18.505,-44.94 -18.505,-74.547c0,-38.066 10.75,-68.379 32.251,-90.937c21.501,-22.558 49.169,-39.829 83.006,-51.813c33.837,-11.984 71.375,-19.914 112.613,-23.792c41.239,-3.877 81.596,-5.816 121.073,-5.816l0,-12.689c0,-31.722 -11.455,-55.161 -34.366,-70.317c-22.91,-15.156 -50.227,-22.734 -81.949,-22.734c-26.788,-0 -52.518,5.639 -77.19,16.918c-24.673,11.279 -45.116,25.025 -61.329,41.239l-65.559,-77.19c28.902,-26.788 62.21,-46.878 99.924,-60.272c37.714,-13.394 75.957,-20.091 114.728,-20.091c45.116,0 82.301,6.344 111.556,19.033c29.255,12.689 52.341,29.255 69.26,49.698c16.918,20.443 28.726,43.353 35.423,68.731c6.697,25.378 10.045,50.755 10.045,76.133l0,308.761l-118.429,0l0,-64.502Zm-2.115,-167.069l-28.55,0c-20.443,0 -41.944,0.881 -64.502,2.644c-22.558,1.762 -43.353,5.639 -62.387,11.631c-19.033,5.992 -34.894,14.451 -47.583,25.378c-12.689,10.926 -19.033,25.906 -19.033,44.94c0,11.984 2.644,22.029 7.931,30.136c5.287,8.107 12.16,14.627 20.619,19.562c8.459,4.935 17.976,8.459 28.55,10.574c10.574,2.115 21.148,3.172 31.722,3.172c43.706,0 76.838,-11.631 99.396,-34.894c22.558,-23.263 33.837,-54.985 33.837,-95.166l0,-17.976Z" style="fill:#fff;fill-rule:nonzero;"/><path d="M1253.381,1289.518l0,-724.029l126.888,0l0,356.344l3.172,0c6.344,-8.459 14.451,-17.271 24.32,-26.435c9.869,-9.164 21.677,-17.623 35.423,-25.378c13.746,-7.754 29.783,-14.275 48.112,-19.562c18.328,-5.287 39.124,-7.931 62.387,-7.931c35.952,0 69.084,6.873 99.396,20.619c30.312,13.746 56.395,32.603 78.248,56.571c21.853,23.968 38.771,52.165 50.755,84.592c11.984,32.427 17.976,67.321 17.976,104.683c0,37.362 -5.816,72.432 -17.447,105.211c-11.631,32.779 -28.197,61.329 -49.698,85.65c-21.501,24.32 -47.583,43.706 -78.248,58.157c-29.919,14.1 -63.697,21.321 -101.334,21.664l0,0.013l-301.36,0l0,-53.309c48.332,-4.265 219.431,-21.516 319.928,-59.555c4.024,-1.359 7.922,-2.912 11.696,-4.66c16.145,-6.782 30.006,-14.178 40.62,-22.229c71.726,-54.405 85.788,-156.808 31.382,-228.533c-19.196,-25.308 -44.368,-43.436 -72.059,-53.912c-16.949,-7.558 -36.418,-11.337 -58.405,-11.337c-16.069,0 -30.961,2.355 -44.676,7.064c-18.782,5.401 -36.898,14.292 -53.393,26.803c-66.447,50.401 -142.51,230.26 -173.683,309.498Z" style="fill:#fff;"/></g><circle cx="1552.164" cy="1079.261" r="75" style="fill:#ff007b;"/><g transform="matrix(1,0,0,1,342.281974,505.814099)"><text x="1597px" y="1074.6px" style="font-family:'AvenirNext-Bold', 'Avenir Next', sans-serif;font-weight:700;font-size:100px;fill:#fff;">S<tspan x="1661px 1761.4px 1839.2px 1909.2px 1964.4px 1996.3px 2026.2px 2116.2px 2187.4px 2269.2px 2347px 2430.9px 2467.6px 2536px 2601.6px " y="1074.6px 1074.6px 1074.6px 1074.6px 1074.6px 1074.6px 1074.6px 1074.6px 1074.6px 1074.6px 1074.6px 1074.6px 1074.6px 1074.6px 1074.6px ">MART. ORGANIZED</tspan>.</text><g transform="matrix(100,0,0,100,3238.4,1074.6)"></g><text x="2739.1px" y="1074.6px" style="font-family:'AvenirNext-Bold', 'Avenir Next', sans-serif;font-weight:700;font-size:100px;fill:#ff007b;">V<tspan x="2812.2px 2848.9px 2920.3px 2991.5px 3069.3px 3153.2px 3208.4px " y="1074.6px 1074.6px 1074.6px 1074.6px 1074.6px 1074.6px 1074.6px ">IBRANT.</tspan></text></g></g></svg>